<svg id="visual" viewBox="0 0 960 540" width="960" height="540" xmlns="http://www.w3.org/2000/svg" xmlns:xlink="http://www.w3.org/1999/xlink" version="1.1"><path d="M0 148L16 158.2C32 168.3 64 188.7 96 197.7C128 206.7 160 204.3 192 197C224 189.7 256 177.3 288 174.3C320 171.3 352 177.7 384 178.2C416 178.7 448 173.3 480 168.8C512 164.3 544 160.7 576 166.8C608 173 640 189 672 198.7C704 208.3 736 211.7 768 212.8C800 214 832 213 864 208C896 203 928 194 944 189.5L960 185L960 0L944 0C928 0 896 0 864 0C832 0 800 0 768 0C736 0 704 0 672 0C640 0 608 0 576 0C544 0 512 0 480 0C448 0 416 0 384 0C352 0 320 0 288 0C256 0 224 0 192 0C160 0 128 0 96 0C64 0 32 0 16 0L0 0Z" fill="#2d3233"></path><path d="M0 128L16 130.5C32 133 64 138 96 140.2C128 142.3 160 141.7 192 140.8C224 140 256 139 288 136.2C320 133.3 352 128.7 384 134.8C416 141 448 158 480 156.8C512 155.7 544 136.3 576 135.2C608 134 640 151 672 156.5C704 162 736 156 768 150.8C800 145.7 832 141.3 864 143.2C896 145 928 153 944 157L960 161L960 0L944 0C928 0 896 0 864 0C832 0 800 0 768 0C736 0 704 0 672 0C640 0 608 0 576 0C544 0 512 0 480 0C448 0 416 0 384 0C352 0 320 0 288 0C256 0 224 0 192 0C160 0 128 0 96 0C64 0 32 0 16 0L0 0Z" fill="#414f4f"></path><path d="M0 92L16 93.2C32 94.3 64 96.7 96 96.8C128 97 160 95 192 98.7C224 102.3 256 111.7 288 114.3C320 117 352 113 384 108.7C416 104.3 448 99.7 480 97.3C512 95 544 95 576 100.7C608 106.3 640 117.7 672 120.2C704 122.7 736 116.3 768 113C800 109.7 832 109.3 864 106.8C896 104.3 928 99.7 944 97.3L960 95L960 0L944 0C928 0 896 0 864 0C832 0 800 0 768 0C736 0 704 0 672 0C640 0 608 0 576 0C544 0 512 0 480 0C448 0 416 0 384 0C352 0 320 0 288 0C256 0 224 0 192 0C160 0 128 0 96 0C64 0 32 0 16 0L0 0Z" fill="#586e6b"></path><path d="M0 68L16 72.5C32 77 64 86 96 90.8C128 95.7 160 96.3 192 94.2C224 92 256 87 288 85.3C320 83.7 352 85.3 384 84C416 82.7 448 78.3 480 79.8C512 81.3 544 88.7 576 89.7C608 90.7 640 85.3 672 80.7C704 76 736 72 768 74.5C800 77 832 86 864 89.5C896 93 928 91 944 90L960 89L960 0L944 0C928 0 896 0 864 0C832 0 800 0 768 0C736 0 704 0 672 0C640 0 608 0 576 0C544 0 512 0 480 0C448 0 416 0 384 0C352 0 320 0 288 0C256 0 224 0 192 0C160 0 128 0 96 0C64 0 32 0 16 0L0 0Z" fill="#728f85"></path><path d="M0 41L16 40.8C32 40.7 64 40.3 96 39.5C128 38.7 160 37.3 192 39.2C224 41 256 46 288 44.7C320 43.3 352 35.7 384 33C416 30.3 448 32.7 480 34.2C512 35.7 544 36.3 576 39.5C608 42.7 640 48.3 672 47.3C704 46.3 736 38.7 768 37.5C800 36.3 832 41.7 864 42.5C896 43.3 928 39.7 944 37.8L960 36L960 0L944 0C928 0 896 0 864 0C832 0 800 0 768 0C736 0 704 0 672 0C640 0 608 0 576 0C544 0 512 0 480 0C448 0 416 0 384 0C352 0 320 0 288 0C256 0 224 0 192 0C160 0 128 0 96 0C64 0 32 0 16 0L0 0Z" fill="#92b09d"></path></svg>