<svg id="visual" viewBox="0 0 900 600" width="900" height="600" xmlns="http://www.w3.org/2000/svg" xmlns:xlink="http://www.w3.org/1999/xlink" version="1.1"><rect x="0" y="0" width="900" height="600" fill="#807F79"></rect><path d="M0 224L21.5 214.5C43 205 86 186 128.8 177.2C171.7 168.3 214.3 169.7 257.2 173.7C300 177.7 343 184.3 385.8 187.3C428.7 190.3 471.3 189.7 514.2 196.3C557 203 600 217 642.8 226.8C685.7 236.7 728.3 242.3 771.2 237.3C814 232.3 857 216.7 878.5 208.8L900 201L900 0L878.5 0C857 0 814 0 771.2 0C728.3 0 685.7 0 642.8 0C600 0 557 0 514.2 0C471.3 0 428.7 0 385.8 0C343 0 300 0 257.2 0C214.3 0 171.7 0 128.8 0C86 0 43 0 21.5 0L0 0Z" fill="#e84832"></path><path d="M0 154L21.5 159.2C43 164.3 86 174.7 128.8 178.7C171.7 182.7 214.3 180.3 257.2 174.7C300 169 343 160 385.8 153.3C428.7 146.7 471.3 142.3 514.2 139.2C557 136 600 134 642.8 132.2C685.7 130.3 728.3 128.7 771.2 130C814 131.3 857 135.7 878.5 137.8L900 140L900 0L878.5 0C857 0 814 0 771.2 0C728.3 0 685.7 0 642.8 0C600 0 557 0 514.2 0C471.3 0 428.7 0 385.8 0C343 0 300 0 257.2 0C214.3 0 171.7 0 128.8 0C86 0 43 0 21.5 0L0 0Z" fill="#ce621f"></path><path d="M0 121L21.5 118.8C43 116.7 86 112.3 128.8 115C171.7 117.7 214.3 127.3 257.2 129C300 130.7 343 124.3 385.8 128.2C428.7 132 471.3 146 514.2 150.2C557 154.3 600 148.7 642.8 146.2C685.7 143.7 728.3 144.3 771.2 143.8C814 143.3 857 141.7 878.5 140.8L900 140L900 0L878.5 0C857 0 814 0 771.2 0C728.3 0 685.7 0 642.8 0C600 0 557 0 514.2 0C471.3 0 428.7 0 385.8 0C343 0 300 0 257.2 0C214.3 0 171.7 0 128.8 0C86 0 43 0 21.5 0L0 0Z" fill="#b4731d"></path><path d="M0 102L21.5 101.8C43 101.7 86 101.3 128.8 99C171.7 96.7 214.3 92.3 257.2 85.7C300 79 343 70 385.8 68.5C428.7 67 471.3 73 514.2 75.3C557 77.7 600 76.3 642.8 81.7C685.7 87 728.3 99 771.2 97C814 95 857 79 878.5 71L900 63L900 0L878.5 0C857 0 814 0 771.2 0C728.3 0 685.7 0 642.8 0C600 0 557 0 514.2 0C471.3 0 428.7 0 385.8 0C343 0 300 0 257.2 0C214.3 0 171.7 0 128.8 0C86 0 43 0 21.5 0L0 0Z" fill="#9c7e2c"></path><path d="M0 24L21.5 28C43 32 86 40 128.8 43.8C171.7 47.7 214.3 47.3 257.2 48.2C300 49 343 51 385.8 51.2C428.7 51.3 471.3 49.7 514.2 48.8C557 48 600 48 642.8 52.2C685.7 56.3 728.3 64.7 771.2 67.3C814 70 857 67 878.5 65.5L900 64L900 0L878.5 0C857 0 814 0 771.2 0C728.3 0 685.7 0 642.8 0C600 0 557 0 514.2 0C471.3 0 428.7 0 385.8 0C343 0 300 0 257.2 0C214.3 0 171.7 0 128.8 0C86 0 43 0 21.5 0L0 0Z" fill="#888441"></path></svg>