<svg id="visual" viewBox="0 0 900 600" width="900" height="600" xmlns="http://www.w3.org/2000/svg" xmlns:xlink="http://www.w3.org/1999/xlink" version="1.1"><rect x="0" y="0" width="900" height="600" fill="#807F79"></rect><path d="M0 161L21.5 167.7C43 174.3 86 187.7 128.8 187.3C171.7 187 214.3 173 257.2 176C300 179 343 199 385.8 207.2C428.7 215.3 471.3 211.7 514.2 211.5C557 211.3 600 214.7 642.8 215.5C685.7 216.3 728.3 214.7 771.2 206.7C814 198.7 857 184.3 878.5 177.2L900 170L900 0L878.5 0C857 0 814 0 771.2 0C728.3 0 685.7 0 642.8 0C600 0 557 0 514.2 0C471.3 0 428.7 0 385.8 0C343 0 300 0 257.2 0C214.3 0 171.7 0 128.8 0C86 0 43 0 21.5 0L0 0Z" fill="#2d3233"></path><path d="M0 138L21.5 147.7C43 157.3 86 176.7 128.8 177.7C171.7 178.7 214.3 161.3 257.2 159.3C300 157.3 343 170.7 385.8 174.2C428.7 177.7 471.3 171.3 514.2 173.8C557 176.3 600 187.7 642.8 188.2C685.7 188.7 728.3 178.3 771.2 178.8C814 179.3 857 190.7 878.5 196.3L900 202L900 0L878.5 0C857 0 814 0 771.2 0C728.3 0 685.7 0 642.8 0C600 0 557 0 514.2 0C471.3 0 428.7 0 385.8 0C343 0 300 0 257.2 0C214.3 0 171.7 0 128.8 0C86 0 43 0 21.5 0L0 0Z" fill="#3d494a"></path><path d="M0 127L21.5 124.2C43 121.3 86 115.7 128.8 123.2C171.7 130.7 214.3 151.3 257.2 153.7C300 156 343 140 385.8 131.3C428.7 122.7 471.3 121.3 514.2 117.5C557 113.7 600 107.3 642.8 107.5C685.7 107.7 728.3 114.3 771.2 119.5C814 124.7 857 128.3 878.5 130.2L900 132L900 0L878.5 0C857 0 814 0 771.2 0C728.3 0 685.7 0 642.8 0C600 0 557 0 514.2 0C471.3 0 428.7 0 385.8 0C343 0 300 0 257.2 0C214.3 0 171.7 0 128.8 0C86 0 43 0 21.5 0L0 0Z" fill="#4f6160"></path><path d="M0 133L21.5 129.7C43 126.3 86 119.7 128.8 119.5C171.7 119.3 214.3 125.7 257.2 124.3C300 123 343 114 385.8 107.2C428.7 100.3 471.3 95.7 514.2 100.7C557 105.7 600 120.3 642.8 125.7C685.7 131 728.3 127 771.2 122.5C814 118 857 113 878.5 110.5L900 108L900 0L878.5 0C857 0 814 0 771.2 0C728.3 0 685.7 0 642.8 0C600 0 557 0 514.2 0C471.3 0 428.7 0 385.8 0C343 0 300 0 257.2 0C214.3 0 171.7 0 128.8 0C86 0 43 0 21.5 0L0 0Z" fill="#627b76"></path><path d="M0 98L21.5 93.8C43 89.7 86 81.3 128.8 74.2C171.7 67 214.3 61 257.2 64.7C300 68.3 343 81.7 385.8 82.7C428.7 83.7 471.3 72.3 514.2 70.3C557 68.3 600 75.7 642.8 77C685.7 78.3 728.3 73.7 771.2 71.7C814 69.7 857 70.3 878.5 70.7L900 71L900 0L878.5 0C857 0 814 0 771.2 0C728.3 0 685.7 0 642.8 0C600 0 557 0 514.2 0C471.3 0 428.7 0 385.8 0C343 0 300 0 257.2 0C214.3 0 171.7 0 128.8 0C86 0 43 0 21.5 0L0 0Z" fill="#78958a"></path><path d="M0 52L21.5 48.3C43 44.7 86 37.3 128.8 32.2C171.7 27 214.3 24 257.2 24.7C300 25.3 343 29.7 385.8 33.5C428.7 37.3 471.3 40.7 514.2 41.8C557 43 600 42 642.8 39.7C685.7 37.3 728.3 33.7 771.2 31.2C814 28.7 857 27.3 878.5 26.7L900 26L900 0L878.5 0C857 0 814 0 771.2 0C728.3 0 685.7 0 642.8 0C600 0 557 0 514.2 0C471.3 0 428.7 0 385.8 0C343 0 300 0 257.2 0C214.3 0 171.7 0 128.8 0C86 0 43 0 21.5 0L0 0Z" fill="#92b09d"></path></svg>