<svg id="visual" viewBox="0 0 960 540" width="960" height="540" xmlns="http://www.w3.org/2000/svg" xmlns:xlink="http://www.w3.org/1999/xlink" version="1.1"><rect x="0" y="0" width="960" height="540" fill="#E37877"></rect><path d="M0 205L22.8 201.2C45.7 197.3 91.3 189.7 137 189C182.7 188.3 228.3 194.7 274 186C319.7 177.3 365.3 153.7 411.2 142.8C457 132 503 134 548.8 136C594.7 138 640.3 140 686 145.7C731.7 151.3 777.3 160.7 823 160.8C868.7 161 914.3 152 937.2 147.5L960 143L960 0L937.2 0C914.3 0 868.7 0 823 0C777.3 0 731.7 0 686 0C640.3 0 594.7 0 548.8 0C503 0 457 0 411.2 0C365.3 0 319.7 0 274 0C228.3 0 182.7 0 137 0C91.3 0 45.7 0 22.8 0L0 0Z" fill="#2d3233"></path><path d="M0 197L22.8 191.7C45.7 186.3 91.3 175.7 137 165.7C182.7 155.7 228.3 146.3 274 149.3C319.7 152.3 365.3 167.7 411.2 171.2C457 174.7 503 166.3 548.8 156.3C594.7 146.3 640.3 134.7 686 138C731.7 141.3 777.3 159.7 823 163.7C868.7 167.7 914.3 157.3 937.2 152.2L960 147L960 0L937.2 0C914.3 0 868.7 0 823 0C777.3 0 731.7 0 686 0C640.3 0 594.7 0 548.8 0C503 0 457 0 411.2 0C365.3 0 319.7 0 274 0C228.3 0 182.7 0 137 0C91.3 0 45.7 0 22.8 0L0 0Z" fill="#3d494a"></path><path d="M0 111L22.8 109.8C45.7 108.7 91.3 106.3 137 103C182.7 99.7 228.3 95.3 274 102.2C319.7 109 365.3 127 411.2 137.8C457 148.7 503 152.3 548.8 142.8C594.7 133.3 640.3 110.7 686 110.8C731.7 111 777.3 134 823 140.2C868.7 146.3 914.3 135.7 937.2 130.3L960 125L960 0L937.2 0C914.3 0 868.7 0 823 0C777.3 0 731.7 0 686 0C640.3 0 594.7 0 548.8 0C503 0 457 0 411.2 0C365.3 0 319.7 0 274 0C228.3 0 182.7 0 137 0C91.3 0 45.7 0 22.8 0L0 0Z" fill="#4f6160"></path><path d="M0 110L22.8 102.2C45.7 94.3 91.3 78.7 137 79C182.7 79.3 228.3 95.7 274 102C319.7 108.3 365.3 104.7 411.2 107.7C457 110.7 503 120.3 548.8 116C594.7 111.7 640.3 93.3 686 89.7C731.7 86 777.3 97 823 97C868.7 97 914.3 86 937.2 80.5L960 75L960 0L937.2 0C914.3 0 868.7 0 823 0C777.3 0 731.7 0 686 0C640.3 0 594.7 0 548.8 0C503 0 457 0 411.2 0C365.3 0 319.7 0 274 0C228.3 0 182.7 0 137 0C91.3 0 45.7 0 22.8 0L0 0Z" fill="#627b76"></path><path d="M0 61L22.8 60.8C45.7 60.7 91.3 60.3 137 60.2C182.7 60 228.3 60 274 60.2C319.7 60.3 365.3 60.7 411.2 60.3C457 60 503 59 548.8 63.8C594.7 68.7 640.3 79.3 686 81.7C731.7 84 777.3 78 823 70.3C868.7 62.7 914.3 53.3 937.2 48.7L960 44L960 0L937.2 0C914.3 0 868.7 0 823 0C777.3 0 731.7 0 686 0C640.3 0 594.7 0 548.8 0C503 0 457 0 411.2 0C365.3 0 319.7 0 274 0C228.3 0 182.7 0 137 0C91.3 0 45.7 0 22.8 0L0 0Z" fill="#78958a"></path><path d="M0 27L22.8 28.7C45.7 30.3 91.3 33.7 137 35.8C182.7 38 228.3 39 274 36.7C319.7 34.3 365.3 28.7 411.2 29.5C457 30.3 503 37.7 548.8 43.2C594.7 48.7 640.3 52.3 686 49.3C731.7 46.3 777.3 36.7 823 35C868.7 33.3 914.3 39.7 937.2 42.8L960 46L960 0L937.2 0C914.3 0 868.7 0 823 0C777.3 0 731.7 0 686 0C640.3 0 594.7 0 548.8 0C503 0 457 0 411.2 0C365.3 0 319.7 0 274 0C228.3 0 182.7 0 137 0C91.3 0 45.7 0 22.8 0L0 0Z" fill="#92b09d"></path></svg>